<svg xmlns="http://www.w3.org/2000/svg" width="13.5" height="13.5" viewBox="0 0 13.5 13.5"><defs></defs><g opacity="1" transform="matrix(1 0 0 1 0 0)"><path d="M13.5 3 L13.5 12 C13.5 12.4125 13.3531 12.7656 13.0594 13.0594 C12.7656 13.3531 12.4125 13.5 12 13.5 L1.5 13.5 C1.0875 13.5 0.7344 13.3531 0.4406 13.0594 C0.1469 12.7656 0 12.4125 0 12 L0 1.5 C0 1.0875 0.1469 0.7344 0.4406 0.4406 C0.7344 0.1469 1.0875 0 1.5 0 L10.5 0 L13.5 3 L13.5 3 M12 3.6375 L9.8625 1.5 L1.5 1.5 L1.5 1.5 L1.5 1.5 L1.5 12 L1.5 12 L1.5 12 L12 12 L12 12 L12 12 L12 3.6375 L12 3.6375 M6.75 11.25 C7.375 11.25 7.9063 11.0313 8.3438 10.5938 C8.7813 10.1563 9 9.625 9 9 C9 8.375 8.7813 7.8438 8.3438 7.4063 C7.9063 6.9688 7.375 6.75 6.75 6.75 C6.125 6.75 5.5938 6.9688 5.1563 7.4063 C4.7188 7.8438 4.5 8.375 4.5 9 C4.5 9.625 4.7188 10.1563 5.1563 10.5938 C5.5938 11.0313 6.125 11.25 6.75 11.25 L6.75 11.25 M2.25 5.25 L9 5.25 L9 2.25 L2.25 2.25 L2.25 5.25 L2.25 5.25 M1.5 3.6375 L1.5 12 L1.5 12 L1.5 12 L1.5 12 L1.5 12 L1.5 12 L1.5 1.5 L1.5 1.5 L1.5 1.5 L1.5 1.5 L1.5 3.6375 L1.5 3.6375 " fill="rgba(255,255,255,1)" fill-opacity="1" fill-rule="nonzero"/></g></svg>