<svg xmlns="http://www.w3.org/2000/svg" width="176" height="176" viewBox="0 0 176 176"><defs></defs><g opacity="1" transform="matrix(1 0 0 1 0 0)"><g opacity="1" transform="matrix(1 0 0 1 61.60000228881836 13.200000762939453)"><path d="M0 0 L6.6 0 L6.6 0 L6.6 6.6 L6.6 6.6 L0 6.6 L0 6.6 L0 0 L0 0 L0 0 " fill="rgba(2,54,22,1)" fill-opacity="1" fill-rule="nonzero"/></g><g opacity="1" transform="matrix(1 0 0 1 137.5 137.5)"><path d="M0 0 L6.6 0 L6.6 0 L6.6 6.6 L6.6 6.6 L0 6.6 L0 6.6 L0 0 L0 0 L0 0 " fill="rgba(2,54,22,1)" fill-opacity="1" fill-rule="nonzero"/></g><g opacity="1" transform="matrix(1 0 0 1 83.5999984741211 64.59583282470703)"><path d="M0 5.8042 C0 -0.7958 8.8 -2.9958 8.8 5.8042 C8.8 12.4042 0 14.6042 0 5.8042 L0 5.8042 " fill="rgba(139,219,89,1)" fill-opacity="1" fill-rule="nonzero"/></g><g opacity="1" transform="matrix(1 0 0 1 74.80000305175781 57.20000076293945)"><path d="M4.4 0 L22 0 C24.4284 0 26.4 1.9716 26.4 4.4 L26.4 22 C26.4 24.4284 24.4284 26.4 22 26.4 L4.4 26.4 C1.9716 26.4 0 24.4284 0 22 L0 4.4 C0 1.9716 1.9716 0 4.4 0 L4.4 0 " fill="rgba(30,77,43,1)" fill-opacity="1" fill-rule="nonzero"/></g><g opacity="1" transform="matrix(1 0 0 1 11 11)"><path d="M4.4 0 L37.4 0 C39.8284 0 41.8 1.9716 41.8 4.4 L41.8 37.4 C41.8 39.8284 39.8284 41.8 37.4 41.8 L4.4 41.8 C1.9716 41.8 0 39.8284 0 37.4 L0 4.4 C0 1.9716 1.9716 0 4.4 0 L4.4 0 " fill="rgba(2,54,22,1)" fill-opacity="1" fill-rule="nonzero"/></g><g opacity="1" transform="matrix(1 0 0 1 13.200000762939453 77)"><path d="M0 0 L6.6 0 L6.6 0 L6.6 15.4 L6.6 15.4 L0 15.4 L0 15.4 L0 0 L0 0 L0 0 " fill="rgba(2,54,22,1)" fill-opacity="1" fill-rule="nonzero"/></g><g opacity="1" transform="matrix(1 0 0 1 72.5999984741211 13.200000762939453)"><path d="M0 0 L6.6 0 L6.6 0 L6.6 6.6 L6.6 6.6 L0 6.6 L0 6.6 L0 0 L0 0 L0 0 " fill="rgba(2,54,22,1)" fill-opacity="1" fill-rule="nonzero"/></g><g opacity="1" transform="matrix(1 0 0 1 11 123.20000457763672)"><path d="M4.4 0 L37.4 0 C39.8284 0 41.8 1.9716 41.8 4.4 L41.8 37.4 C41.8 39.8284 39.8284 41.8 37.4 41.8 L4.4 41.8 C1.9716 41.8 0 39.8284 0 37.4 L0 4.4 C0 1.9716 1.9716 0 4.4 0 L4.4 0 " fill="rgba(2,54,22,1)" fill-opacity="1" fill-rule="nonzero"/></g><g opacity="1" transform="matrix(1 0 0 1 17.600000381469727 17.600000381469727)"><path d="M2.2 0 L26.4 0 C27.6142 0 28.6 0.9858 28.6 2.2 L28.6 26.4 C28.6 27.6142 27.6142 28.6 26.4 28.6 L2.2 28.6 C0.9858 28.6 0 27.6142 0 26.4 L0 2.2 C0 0.9858 0.9858 0 2.2 0 L2.2 0 " fill="rgba(255,255,255,1)" fill-opacity="1" fill-rule="nonzero"/></g><g opacity="1" transform="matrix(1 0 0 1 17.600000381469727 129.8000030517578)"><path d="M2.2 0 L26.4 0 C27.6142 0 28.6 0.9858 28.6 2.2 L28.6 26.4 C28.6 27.6142 27.6142 28.6 26.4 28.6 L2.2 28.6 C0.9858 28.6 0 27.6142 0 26.4 L0 2.2 C0 0.9858 0.9858 0 2.2 0 L2.2 0 " fill="rgba(255,255,255,1)" fill-opacity="1" fill-rule="nonzero"/></g><g opacity="1" transform="matrix(1 0 0 1 24.200000762939453 136.40000915527344)"><path d="M1.1 0 L14.3 0 C14.9071 0 15.4 0.4929 15.4 1.1 L15.4 14.3 C15.4 14.9071 14.9071 15.4 14.3 15.4 L1.1 15.4 C0.4929 15.4 0 14.9071 0 14.3 L0 1.1 C0 0.4929 0.4929 0 1.1 0 L1.1 0 " fill="rgba(2,54,22,1)" fill-opacity="1" fill-rule="nonzero"/></g><g opacity="1" transform="matrix(1 0 0 1 26.400001525878906 77)"><path d="M0 0 L13.2 0 L13.2 0 L13.2 6.6 L13.2 6.6 L0 6.6 L0 6.6 L0 0 L0 0 L0 0 " fill="rgba(2,54,22,1)" fill-opacity="1" fill-rule="nonzero"/></g><g opacity="1" transform="matrix(1 0 0 1 127.60000610351562 127.60000610351562)"><path d="M2.2 0 L24.2 0 C25.4142 0 26.4 0.9858 26.4 2.2 L26.4 24.2 C26.4 25.4142 25.4142 26.4 24.2 26.4 L2.2 26.4 C0.9858 26.4 0 25.4142 0 24.2 L0 2.2 C0 0.9858 0.9858 0 2.2 0 L2.2 0 " fill="rgba(2,54,22,1)" fill-opacity="1" fill-rule="nonzero"/></g><g opacity="1" transform="matrix(1 0 0 1 83.5999984741211 13.200000762939453)"><path d="M0 0 L6.6 0 L6.6 0 L6.6 6.6 L6.6 6.6 L0 6.6 L0 6.6 L0 0 L0 0 L0 0 " fill="rgba(2,54,22,1)" fill-opacity="1" fill-rule="nonzero"/></g><g opacity="1" transform="matrix(1 0 0 1 136.40000915527344 24.200000762939453)"><path d="M1.1 0 L14.3 0 C14.9071 0 15.4 0.4929 15.4 1.1 L15.4 14.3 C15.4 14.9071 14.9071 15.4 14.3 15.4 L1.1 15.4 C0.4929 15.4 0 14.9071 0 14.3 L0 1.1 C0 0.4929 0.4929 0 1.1 0 L1.1 0 " fill="rgba(2,54,22,1)" fill-opacity="1" fill-rule="nonzero"/></g><g opacity="1" transform="matrix(1 0 0 1 24.200000762939453 24.200000762939453)"><path d="M1.1 0 L14.3 0 C14.9071 0 15.4 0.4929 15.4 1.1 L15.4 14.3 C15.4 14.9071 14.9071 15.4 14.3 15.4 L1.1 15.4 C0.4929 15.4 0 14.9071 0 14.3 L0 1.1 C0 0.4929 0.4929 0 1.1 0 L1.1 0 " fill="rgba(2,54,22,1)" fill-opacity="1" fill-rule="nonzero"/></g><g opacity="1" transform="matrix(1 0 0 1 129.8000030517578 17.600000381469727)"><path d="M2.2 0 L26.4 0 C27.6142 0 28.6 0.9858 28.6 2.2 L28.6 26.4 C28.6 27.6142 27.6142 28.6 26.4 28.6 L2.2 28.6 C0.9858 28.6 0 27.6142 0 26.4 L0 2.2 C0 0.9858 0.9858 0 2.2 0 L2.2 0 " fill="rgba(255,255,255,1)" fill-opacity="1" fill-rule="nonzero"/></g><g opacity="1" transform="matrix(1 0 0 1 133.10000610351562 133.10000610351562)"><path d="M1.1 0 L14.3 0 C14.9071 0 15.4 0.4929 15.4 1.1 L15.4 14.3 C15.4 14.9071 14.9071 15.4 14.3 15.4 L1.1 15.4 C0.4929 15.4 0 14.9071 0 14.3 L0 1.1 C0 0.4929 0.4929 0 1.1 0 L1.1 0 " fill="rgba(255,255,255,1)" fill-opacity="1" fill-rule="nonzero"/></g><g opacity="1" transform="matrix(1 0 0 1 83.5999984741211 70.4000015258789)"><path d="M9.625 0 C9.625 -0.4556 9.2556 -0.825 8.8 -0.825 C8.3444 -0.825 7.975 -0.4556 7.975 0 L8.8 0 L9.625 0 ZM-0.825 13.2 C-0.825 13.6556 -0.4556 14.025 0 14.025 C0.4556 14.025 0.825 13.6556 0.825 13.2 L0 13.2 L-0.825 13.2 ZM8.8 0 L7.975 0 C7.975 2.8924 6.0667 4.8704 3.8567 6.8041 C2.7938 7.7342 1.6287 8.6821 0.7584 9.6613 C-0.1224 10.6522 -0.825 11.8048 -0.825 13.2 L0 13.2 L0.825 13.2 C0.825 12.3952 1.2224 11.6228 1.9916 10.7575 C2.7713 9.8804 3.8062 9.0408 4.9433 8.0459 C7.1333 6.1296 9.625 3.7076 9.625 0 L8.8 0 Z" fill="rgba(139,219,89,1)" fill-opacity="1" fill-rule="nonzero"/></g><g opacity="1" transform="matrix(1 0 0 1 110 61.60000228881836)"><path d="M0 0 L15.4 0 L15.4 0 L15.4 6.6 L15.4 6.6 L0 6.6 L0 6.6 L0 0 L0 0 L0 0 " fill="rgba(2,54,22,1)" fill-opacity="1" fill-rule="nonzero"/></g><g opacity="1" transform="matrix(1 0 0 1 134.1999969482422 61.60000228881836)"><path d="M0 0 L28.6 0 L28.6 0 L28.6 6.6 L28.6 6.6 L0 6.6 L0 6.6 L0 0 L0 0 L0 0 " fill="rgba(2,54,22,1)" fill-opacity="1" fill-rule="nonzero"/></g><g opacity="1" transform="matrix(1 0 0 1 123.20000457763672 11)"><path d="M4.4 0 L37.4 0 C39.8284 0 41.8 1.9716 41.8 4.4 L41.8 37.4 C41.8 39.8284 39.8284 41.8 37.4 41.8 L4.4 41.8 C1.9716 41.8 0 39.8284 0 37.4 L0 4.4 C0 1.9716 1.9716 0 4.4 0 L4.4 0 " fill="rgba(2,54,22,1)" fill-opacity="1" fill-rule="nonzero"/></g><g opacity="1" transform="matrix(1 0 0 1 101.20000457763672 13.200000762939453)"><path d="M0 0 L6.6 0 L6.6 0 L6.6 6.6 L6.6 6.6 L0 6.6 L0 6.6 L0 0 L0 0 L0 0 " fill="rgba(2,54,22,1)" fill-opacity="1" fill-rule="nonzero"/></g><g opacity="1" transform="matrix(1 0 0 1 61.60000228881836 26.400001525878906)"><path d="M0 0 L15.4 0 L15.4 0 L15.4 6.6 L15.4 6.6 L0 6.6 L0 6.6 L0 0 L0 0 L0 0 " fill="rgba(2,54,22,1)" fill-opacity="1" fill-rule="nonzero"/></g><g opacity="1" transform="matrix(1 0 0 1 83.5999984741211 26.400001525878906)"><path d="M0 0 L6.6 0 L6.6 0 L6.6 15.4 L6.6 15.4 L0 15.4 L0 15.4 L0 0 L0 0 L0 0 " fill="rgba(2,54,22,1)" fill-opacity="1" fill-rule="nonzero"/></g><g opacity="1" transform="matrix(1 0 0 1 101.20000457763672 26.400001525878906)"><path d="M0 0 L13.2 0 L13.2 0 L13.2 6.6 L13.2 6.6 L0 6.6 L0 6.6 L0 0 L0 0 L0 0 " fill="rgba(2,54,22,1)" fill-opacity="1" fill-rule="nonzero"/></g><g opacity="1" transform="matrix(1 0 0 1 61.60000228881836 39.60000228881836)"><path d="M0 0 L6.6 0 L6.6 0 L6.6 13.2 L6.6 13.2 L0 13.2 L0 13.2 L0 0 L0 0 L0 0 " fill="rgba(2,54,22,1)" fill-opacity="1" fill-rule="nonzero"/></g><g opacity="1" transform="matrix(1 0 0 1 74.80000305175781 39.60000228881836)"><path d="M0 0 L6.6 0 L6.6 0 L6.6 6.6 L6.6 6.6 L0 6.6 L0 6.6 L0 0 L0 0 L0 0 " fill="rgba(2,54,22,1)" fill-opacity="1" fill-rule="nonzero"/></g><g opacity="1" transform="matrix(1 0 0 1 92.4000015258789 39.60000228881836)"><path d="M0 0 L15.4 0 L15.4 0 L15.4 6.6 L15.4 6.6 L0 6.6 L0 6.6 L0 0 L0 0 L0 0 " fill="rgba(2,54,22,1)" fill-opacity="1" fill-rule="nonzero"/></g><g opacity="1" transform="matrix(1 0 0 1 13.200000762939453 61.60000228881836)"><path d="M0 0 L13.2 0 L13.2 0 L13.2 6.6 L13.2 6.6 L0 6.6 L0 6.6 L0 0 L0 0 L0 0 " fill="rgba(2,54,22,1)" fill-opacity="1" fill-rule="nonzero"/></g><g opacity="1" transform="matrix(1 0 0 1 33 61.60000228881836)"><path d="M0 0 L6.6 0 L6.6 0 L6.6 15.4 L6.6 15.4 L0 15.4 L0 15.4 L0 0 L0 0 L0 0 " fill="rgba(2,54,22,1)" fill-opacity="1" fill-rule="nonzero"/></g><g opacity="1" transform="matrix(1 0 0 1 48.400001525878906 61.60000228881836)"><path d="M0 0 L17.6 0 L17.6 0 L17.6 6.6 L17.6 6.6 L0 6.6 L0 6.6 L0 0 L0 0 L0 0 " fill="rgba(2,54,22,1)" fill-opacity="1" fill-rule="nonzero"/></g><g opacity="1" transform="matrix(1 0 0 1 46.20000076293945 77)"><path d="M0 0 L6.6 0 L6.6 0 L6.6 22 L6.6 22 L0 22 L0 22 L0 0 L0 0 L0 0 " fill="rgba(2,54,22,1)" fill-opacity="1" fill-rule="nonzero"/></g><g opacity="1" transform="matrix(1 0 0 1 110 77)"><path d="M0 0 L19.8 0 L19.8 0 L19.8 6.6 L19.8 6.6 L0 6.6 L0 6.6 L0 0 L0 0 L0 0 " fill="rgba(2,54,22,1)" fill-opacity="1" fill-rule="nonzero"/></g><g opacity="1" transform="matrix(1 0 0 1 138.60000610351562 77)"><path d="M0 0 L6.6 0 L6.6 0 L6.6 19.8 L6.6 19.8 L0 19.8 L0 19.8 L0 0 L0 0 L0 0 " fill="rgba(2,54,22,1)" fill-opacity="1" fill-rule="nonzero"/></g><g opacity="1" transform="matrix(1 0 0 1 151.8000030517578 77)"><path d="M0 0 L11 0 L11 0 L11 6.6 L11 6.6 L0 6.6 L0 6.6 L0 0 L0 0 L0 0 " fill="rgba(2,54,22,1)" fill-opacity="1" fill-rule="nonzero"/></g><g opacity="1" transform="matrix(1 0 0 1 61.60000228881836 92.4000015258789)"><path d="M0 0 L11 0 L11 0 L11 6.6 L11 6.6 L0 6.6 L0 6.6 L0 0 L0 0 L0 0 " fill="rgba(2,54,22,1)" fill-opacity="1" fill-rule="nonzero"/></g><g opacity="1" transform="matrix(1 0 0 1 81.4000015258789 92.4000015258789)"><path d="M0 0 L15.4 0 L15.4 0 L15.4 6.6 L15.4 6.6 L0 6.6 L0 6.6 L0 0 L0 0 L0 0 " fill="rgba(2,54,22,1)" fill-opacity="1" fill-rule="nonzero"/></g><g opacity="1" transform="matrix(1 0 0 1 105.60000610351562 92.4000015258789)"><path d="M0 0 L6.6 0 L6.6 0 L6.6 15.4 L6.6 15.4 L0 15.4 L0 15.4 L0 0 L0 0 L0 0 " fill="rgba(2,54,22,1)" fill-opacity="1" fill-rule="nonzero"/></g><g opacity="1" transform="matrix(1 0 0 1 121 92.4000015258789)"><path d="M0 0 L15.4 0 L15.4 0 L15.4 6.6 L15.4 6.6 L0 6.6 L0 6.6 L0 0 L0 0 L0 0 " fill="rgba(2,54,22,1)" fill-opacity="1" fill-rule="nonzero"/></g><g opacity="1" transform="matrix(1 0 0 1 13.200000762939453 101.20000457763672)"><path d="M0 0 L26.4 0 L26.4 0 L26.4 6.6 L26.4 6.6 L0 6.6 L0 6.6 L0 0 L0 0 L0 0 " fill="rgba(2,54,22,1)" fill-opacity="1" fill-rule="nonzero"/></g><g opacity="1" transform="matrix(1 0 0 1 61.60000228881836 107.80000305175781)"><path d="M0 0 L19.8 0 L19.8 0 L19.8 6.6 L19.8 6.6 L0 6.6 L0 6.6 L0 0 L0 0 L0 0 " fill="rgba(2,54,22,1)" fill-opacity="1" fill-rule="nonzero"/></g><g opacity="1" transform="matrix(1 0 0 1 90.20000457763672 107.80000305175781)"><path d="M0 0 L6.6 0 L6.6 0 L6.6 13.2 L6.6 13.2 L0 13.2 L0 13.2 L0 0 L0 0 L0 0 " fill="rgba(2,54,22,1)" fill-opacity="1" fill-rule="nonzero"/></g><g opacity="1" transform="matrix(1 0 0 1 105.60000610351562 114.4000015258789)"><path d="M0 0 L22 0 L22 0 L22 6.6 L22 6.6 L0 6.6 L0 6.6 L0 0 L0 0 L0 0 " fill="rgba(2,54,22,1)" fill-opacity="1" fill-rule="nonzero"/></g><g opacity="1" transform="matrix(1 0 0 1 136.40000915527344 105.60000610351562)"><path d="M0 0 L6.6 0 L6.6 0 L6.6 13.2 L6.6 13.2 L0 13.2 L0 13.2 L0 0 L0 0 L0 0 " fill="rgba(2,54,22,1)" fill-opacity="1" fill-rule="nonzero"/></g><g opacity="1" transform="matrix(1 0 0 1 61.60000228881836 127.60000610351562)"><path d="M0 0 L6.6 0 L6.6 0 L6.6 17.6 L6.6 17.6 L0 17.6 L0 17.6 L0 0 L0 0 L0 0 " fill="rgba(2,54,22,1)" fill-opacity="1" fill-rule="nonzero"/></g><g opacity="1" transform="matrix(1 0 0 1 74.80000305175781 127.60000610351562)"><path d="M0 0 L15.4 0 L15.4 0 L15.4 6.6 L15.4 6.6 L0 6.6 L0 6.6 L0 0 L0 0 L0 0 " fill="rgba(2,54,22,1)" fill-opacity="1" fill-rule="nonzero"/></g><g opacity="1" transform="matrix(1 0 0 1 99 127.60000610351562)"><path d="M0 0 L19.8 0 L19.8 0 L19.8 6.6 L19.8 6.6 L0 6.6 L0 6.6 L0 0 L0 0 L0 0 " fill="rgba(2,54,22,1)" fill-opacity="1" fill-rule="nonzero"/></g><g opacity="1" transform="matrix(1 0 0 1 74.80000305175781 143)"><path d="M0 0 L6.6 0 L6.6 0 L6.6 17.6 L6.6 17.6 L0 17.6 L0 17.6 L0 0 L0 0 L0 0 " fill="rgba(2,54,22,1)" fill-opacity="1" fill-rule="nonzero"/></g><g opacity="1" transform="matrix(1 0 0 1 90.20000457763672 140.8000030517578)"><path d="M0 0 L17.6 0 L17.6 0 L17.6 8.8 L17.6 8.8 L0 8.8 L0 8.8 L0 0 L0 0 L0 0 " fill="rgba(2,54,22,1)" fill-opacity="1" fill-rule="nonzero"/></g><g opacity="1" transform="matrix(1 0 0 1 61.60000228881836 151.8000030517578)"><path d="M0 0 L8.8 0 L8.8 0 L8.8 8.8 L8.8 8.8 L0 8.8 L0 8.8 L0 0 L0 0 L0 0 " fill="rgba(2,54,22,1)" fill-opacity="1" fill-rule="nonzero"/></g></g></svg>