<svg xmlns="http://www.w3.org/2000/svg" width="15" height="15" viewBox="0 0 15 15"><defs></defs><g opacity="1" transform="matrix(1 0 0 1 0 0)"><path d="M9.975 11.025 L11.025 9.975 L8.25 7.2 L8.25 3.75 L6.75 3.75 L6.75 7.8 L9.975 11.025 L9.975 11.025 M7.5 15 C6.4625 15 5.4875 14.8031 4.575 14.4094 C3.6625 14.0156 2.8687 13.4812 2.1937 12.8062 C1.5187 12.1312 0.9844 11.3375 0.5906 10.425 C0.1969 9.5125 0 8.5375 0 7.5 C0 6.4625 0.1969 5.4875 0.5906 4.575 C0.9844 3.6625 1.5187 2.8687 2.1937 2.1937 C2.8687 1.5187 3.6625 0.9844 4.575 0.5906 C5.4875 0.1969 6.4625 0 7.5 0 C8.5375 0 9.5125 0.1969 10.425 0.5906 C11.3375 0.9844 12.1312 1.5187 12.8062 2.1937 C13.4812 2.8687 14.0156 3.6625 14.4094 4.575 C14.8031 5.4875 15 6.4625 15 7.5 C15 8.5375 14.8031 9.5125 14.4094 10.425 C14.0156 11.3375 13.4812 12.1312 12.8062 12.8062 C12.1312 13.4812 11.3375 14.0156 10.425 14.4094 C9.5125 14.8031 8.5375 15 7.5 15 L7.5 15 M7.5 7.5 L7.5 7.5 L7.5 7.5 L7.5 7.5 L7.5 7.5 L7.5 7.5 L7.5 7.5 L7.5 7.5 L7.5 7.5 L7.5 7.5 M7.5 13.5 C9.1625 13.5 10.5781 12.9156 11.7469 11.7469 C12.9156 10.5781 13.5 9.1625 13.5 7.5 C13.5 5.8375 12.9156 4.4219 11.7469 3.2531 C10.5781 2.0844 9.1625 1.5 7.5 1.5 C5.8375 1.5 4.4219 2.0844 3.2531 3.2531 C2.0844 4.4219 1.5 5.8375 1.5 7.5 C1.5 9.1625 2.0844 10.5781 3.2531 11.7469 C4.4219 12.9156 5.8375 13.5 7.5 13.5 L7.5 13.5 " fill="rgba(30,77,43,1)" fill-opacity="1" fill-rule="nonzero"/></g></svg>