<svg xmlns="http://www.w3.org/2000/svg" width="18.33333396911621" height="18.33333396911621" viewBox="0 0 18.33333396911621 18.33333396911621"><defs></defs><g opacity="1" transform="matrix(1 0 0 1 0 0)"><path d="M9.1667 18.3333 C7.8986 18.3333 6.7069 18.0927 5.5917 17.6115 C4.4764 17.1302 3.5063 16.4771 2.6813 15.6521 C1.8563 14.8271 1.2031 13.8569 0.7219 12.7417 C0.2406 11.6264 0 10.4347 0 9.1667 C0 7.8986 0.2406 6.7069 0.7219 5.5917 C1.2031 4.4764 1.8563 3.5063 2.6813 2.6813 C3.5063 1.8563 4.4764 1.2031 5.5917 0.7219 C6.7069 0.2406 7.8986 0 9.1667 0 C10.4347 0 11.6264 0.2406 12.7417 0.7219 C13.8569 1.2031 14.8271 1.8563 15.6521 2.6813 C16.4771 3.5063 17.1302 4.4764 17.6115 5.5917 C18.0927 6.7069 18.3333 7.8986 18.3333 9.1667 C18.3333 10.4347 18.0927 11.6264 17.6115 12.7417 C17.1302 13.8569 16.4771 14.8271 15.6521 15.6521 C14.8271 16.4771 13.8569 17.1302 12.7417 17.6115 C11.6264 18.0927 10.4347 18.3333 9.1667 18.3333 L9.1667 18.3333 M8.25 16.4542 L8.25 14.6667 C7.7458 14.6667 7.3142 14.4872 6.9552 14.1281 C6.5962 13.7691 6.4167 13.3375 6.4167 12.8333 L6.4167 11.9167 L2.0167 7.5167 C1.9708 7.7917 1.9288 8.0667 1.8906 8.3417 C1.8524 8.6167 1.8333 8.8917 1.8333 9.1667 C1.8333 11.0153 2.4406 12.6347 3.6552 14.025 C4.8698 15.4153 6.4014 16.225 8.25 16.4542 L8.25 16.4542 M14.575 14.1167 C15.2014 13.4292 15.6788 12.6615 16.0073 11.8135 C16.3358 10.9656 16.5 10.0833 16.5 9.1667 C16.5 7.6694 16.0837 6.3021 15.251 5.0646 C14.4184 3.8271 13.3069 2.9333 11.9167 2.3833 L11.9167 2.75 C11.9167 3.2542 11.7372 3.6858 11.3781 4.0448 C11.0191 4.4038 10.5875 4.5833 10.0833 4.5833 L8.25 4.5833 L8.25 6.4167 C8.25 6.6764 8.1622 6.8941 7.9865 7.0698 C7.8108 7.2455 7.5931 7.3333 7.3333 7.3333 L5.5 7.3333 L5.5 9.1667 L11 9.1667 C11.2597 9.1667 11.4774 9.2545 11.6531 9.4302 C11.8288 9.6059 11.9167 9.8236 11.9167 10.0833 L11.9167 12.8333 L12.8333 12.8333 C13.2306 12.8333 13.5896 12.9517 13.9104 13.1885 C14.2312 13.4253 14.4528 13.7347 14.575 14.1167 L14.575 14.1167 " fill="rgba(255,255,255,1)" fill-opacity="1" fill-rule="nonzero"/></g></svg>